<?xml version="1.0" encoding="utf-8"?>
<!-- Generator: Adobe Illustrator 25.1.0, SVG Export Plug-In . SVG Version: 6.00 Build 0)  -->
<svg version="1.1"
	 id="svg833" xmlns:cc="http://creativecommons.org/ns#" xmlns:dc="http://purl.org/dc/elements/1.1/" xmlns:inkscape="http://www.inkscape.org/namespaces/inkscape" xmlns:rdf="http://www.w3.org/1999/02/22-rdf-syntax-ns#" xmlns:sodipodi="http://sodipodi.sourceforge.net/DTD/sodipodi-0.dtd" xmlns:svg="http://www.w3.org/2000/svg"
	 xmlns="http://www.w3.org/2000/svg" xmlns:xlink="http://www.w3.org/1999/xlink" x="0px" y="0px" viewBox="0 0 2388 1668"
	 style="enable-background:new 0 0 2388 1668;" xml:space="preserve">
<style type="text/css">
	.st0{fill:#FEA90D;}
</style>
<g id="g841" inkscape:groupmode="layer" inkscape:label="Image">
	<path id="path3137" class="st0" d="M1134.8,1019.9c-16.1-2.6-42.4-9.4-52.9-13.5c-19.5-7.7-37.7-19.2-46.7-29.5
		c-7.3-8.3-21.7-27.9-26.2-35.4c-5.7-9.7-11.9-26.6-13.2-35.9c-0.7-4.8-0.9-14.5-0.5-25.8c0.6-16,1-19.4,3.7-29
		c5.7-20.4,13.8-33.3,29-46.4c11.7-10.1,29.6-20.6,42.9-25.2c8.4-2.9,26.9-5.8,41.4-6.4c21.6-1,33.5,2.5,63.4,18.5
		c27.5,14.7,44.1,33.9,50.2,57.9c2.5,9.9,2.7,33.2,0.3,41.3c-5.8,19.6-23.7,40.7-42.7,50.2c-17.8,8.9-31.1,11.7-56,11.9
		c-14.3,0.1-15.7-0.1-22.2-2.6c-16.2-6.3-26.7-14.3-36.7-28.2c-6.2-8.7-8.4-14.7-9.4-25.7c-1-11.1,0.9-20.4,5.7-27.6
		c8.3-12.4,22.9-23.2,35.8-26.6c11.8-3,28.5,0.4,40.9,8.4c8.2,5.3,10.8,9.1,10.7,16.1c-0.1,6.3-2,11-7.1,16.9
		c-3.5,4.1-15.1,11.4-16.6,10.5c-0.4-0.3,1.2-2.9,3.7-6c5.3-6.5,7.1-9.8,8-14.7c1-5.1-0.9-9.7-5.5-13.4c-3.2-2.6-5.5-3.4-12.3-4.4
		c-9.9-1.5-19.9-0.9-24.4,1.4c-4.7,2.4-9.8,8-13,13.9c-2.5,4.8-2.7,6.1-2.7,16.7c0.1,12.8,1.3,18,7.1,29.2
		c8.4,16.2,21.1,24.9,41,27.8c28.5,4.3,58.5-12,68.8-37.1c6.4-15.7,7.6-27.2,4.6-45.2c-2.5-15.3-5.4-23.2-12.8-34.6
		c-9.3-14.3-22.2-25.1-38.5-32.2c-12.7-5.5-18.9-6.9-31.6-6.9c-17.1,0-34.6,4.4-48.3,12.1c-25.1,14.2-34.6,23.5-44.8,43.7
		c-5.8,11.4-6.6,16-6.5,35.7c0.1,27,2.2,35.5,14.2,56.5c10.4,18.2,16.9,25.7,30.7,35.2c16.4,11.4,24.7,14.9,46.7,20
		c13.6,3.1,15.2,3.3,33.8,3.3c21.9,0,24.9-0.4,53-7.5c22.1-5.6,29.9-8.1,42-13.6c23-10.5,37.6-21.4,50.5-37.9
		c9.1-11.7,12.4-17.6,19.9-36c12-29.6,16.4-50.5,17.4-82.7c0.5-17,1.3-21.4,2.7-14.6c0.9,4.6,0.7,30.8-0.4,42.9
		c-0.5,5.8-1.4,17.1-2,25.1c-1.2,17-3.2,25.4-10,43.4c-6.6,17.3-10.4,24.7-19.9,39.1c-6.6,10-9.7,13.7-17.9,20.8
		c-11.3,9.9-25.1,20.1-33.4,24.5c-6.2,3.3-27.1,11.5-39.9,15.5C1189.5,1019.9,1153.3,1022.9,1134.8,1019.9L1134.8,1019.9z
		 M936,886.8c-40.6-21.2-61.7-37.8-86.5-67.8c-11.4-13.8-13.7-17.2-22.3-33.7c-12.1-23.2-17-41.4-17.9-66.6
		c-0.8-22.6,2.8-48,9.6-66.5c4-10.9,17.1-35,24.6-45.1c11.6-15.7,28.8-30,47.1-39.2c7.9-4,24.8-8.7,42.4-11.8
		c16.8-3,51.5-3.7,66.5-1.4c40.9,6.4,73.5,27.6,88.5,57.4c4.2,8.3,8.7,25.9,10.3,39.5c1.1,9.8,1,12.1-0.9,24.5
		c-3.7,23.8-9.5,38.6-21.6,54.9c-12.8,17.2-28.1,27.8-52,35.8c-14.8,4.9-27.4,6.9-43.8,6.8c-13.7-0.1-15.3-0.4-38.3-6.6
		c-14.5-3.9-37.6-20.5-47-33.8c-11.3-16-13.8-27.4-10.2-47.6c2.7-15.3,7.2-22.9,24.3-41.1c8.5-9.1,12.8-12.8,19.2-16.5
		c9.7-5.7,19.1-9.2,28.7-10.6c24.1-3.5,46.5,1.9,61.7,14.8c7.8,6.7,10.3,9.9,15,19.9c4.2,9,5.9,17.8,4.4,23.8
		c-1,4-6.9,9.8-16.8,16.6c-15.9,10.9-26.2,13.9-37.1,10.9c-4.7-1.3-11.5-7.3-13.3-11.6c-1.5-3.7-1.8-17.9-0.4-18.8
		c0.5-0.3,2.6,2.5,4.5,6.4c6.6,13.1,11.6,16.7,22.4,15.9c8-0.6,12.7-3.2,16.7-9.2c4.6-7,5.8-13,4.4-22.5
		c-2.1-14.4-9.5-25.4-20.6-30.5c-10.3-4.8-13.6-5.7-24.4-6.6c-14.2-1.2-21.4,0-32,5.3c-6.6,3.3-10.4,6.2-17.1,12.7
		c-7.3,7.2-9.3,9.9-13.3,18.1c-6.2,12.7-7.4,19.3-6.6,34.4c0.6,11.6,0.8,12.3,5.2,21.5c7.8,16.1,15.7,23.1,37.9,33.9
		c15.1,7.3,21,8.5,40.8,8.5c19.2,0,21.5-0.6,38.7-10.2c14.7-8.1,22.8-14.5,30.2-23.9c8.7-10.9,13.4-19.9,16.5-31.7
		c2.2-8.6,2.6-11.9,2.6-25.7c0-22-3.2-42.3-8.2-52.5c-3.6-7.3-12.7-18.4-18.5-22.7c-27-20-59.7-28.4-96.3-25
		c-14.4,1.4-23.4,3.7-41.2,10.9c-27.8,11.1-44.4,26.3-58.7,53.5c-6.9,13.1-9.7,21-13.6,38.3c-4.9,22-6.7,35.4-6.8,50.5
		c0,16.5,1.4,25.1,6.5,40c10.3,29.6,17.5,40.6,51,77.6c15.6,17.3,47,44.5,57.5,49.8c3.3,1.6,4.4,3.6,2,3.6
		C949,893.3,942.8,890.4,936,886.8L936,886.8z M1249.5,767.3c-23.8-2.2-39.9-7.6-57.8-19.4c-20.2-13.3-39.5-40.5-43.1-60.7
		c-2.4-13.4-2.8-22.8-1.6-34c2.3-21,6.2-32.6,16.4-49.3c13-21,30.4-33.9,55.7-41.2c7.7-2.2,11.4-2.7,20.4-2.7
		c9.7,0,12.1,0.4,20.5,3.2c5.2,1.8,14.1,5.5,19.8,8.2c16.1,7.8,29.6,21.7,38.6,39.8c7.9,15.9,10,36.2,5.1,50.2
		c-3.8,10.7-8.2,17.7-16.5,25.9c-10.3,10.2-20.9,16.1-35.3,19.4c-23.6,5.5-44.3,2.2-56.7-9c-13.7-12.4-10.7-40,5.2-47.9
		c2.8-1.4,6.7-2.6,8.7-2.5c4.9,0,16.8,2.6,21.3,4.6c4.1,1.8,5.2,4,1.5,2.9c-4.1-1.2-13.5-1.8-17.1-1.2c-4.2,0.8-9.1,4.6-11.3,8.9
		c-2.2,4.3-2,13.5,0.5,18.4c3,5.8,9.7,12.2,15.8,15c5.2,2.4,6.3,2.5,19.2,2.1c12.6-0.3,14.2-0.6,19-3.1
		c11.9-6.2,23.5-17.9,28.4-28.7c4.3-9.4,1.7-29.5-5.8-44.7c-7.4-15-21.8-28.1-39.5-35.9c-6-2.6-7.4-2.9-18.5-2.8
		c-9.4,0-13.7,0.5-19.8,2.3c-18.9,5.4-35,17-45.9,33.2c-6,8.9-7.1,11.2-10.3,23.3c-1.7,6.2-2.5,11.8-2.5,17.2
		c0,35.4,12.3,59.7,39,77.7c17.6,11.8,30.5,15.1,58.9,15.2h18.5l8.5-3.3c36.4-14.1,53.9-29.9,70.5-63.7c8.4-17,10.5-26.9,10.6-49.6
		c0.1-33.2-3.7-42.7-28.8-71.1c-18-20.4-36.7-32.6-67.2-43.8c-21.8-8-38.4-10.7-72.8-11.7c-14.5-0.4-24.6-0.3-32,0.6
		c-12.9,1.5-34.9,5.4-45.5,8.1c-15.6,4-43.4,14.3-49,18.1c-3,2-4.8,2.4-4.8,0.8c0-0.6,2.8-2.8,6.2-5c12-7.7,29.4-15.8,45.8-21.5
		c31.9-11,47.2-14.8,66-16.6c15.4-1.4,60.7-1.3,71.2,0.1c29.6,4,78.6,29.9,100.4,53c10.7,11.3,20.6,24.8,26.1,35.7
		c5.8,11.3,12.4,28.7,14.9,38.8c3.1,13,1.5,34.9-3.8,52.5c-8.4,27.3-30.5,53.4-61.8,72.5c-1.9,1.2-5.3,3.3-7.5,4.6
		c-17.9,11.2-29.2,15.1-48.6,16.8C1266.4,768.4,1261.5,768.4,1249.5,767.3L1249.5,767.3z"/>
</g>
</svg>
