<?xml version="1.0" encoding="utf-8"?>
<!-- Generator: Adobe Illustrator 25.1.0, SVG Export Plug-In . SVG Version: 6.00 Build 0)  -->
<svg version="1.1"
	 id="svg845" xmlns:cc="http://creativecommons.org/ns#" xmlns:dc="http://purl.org/dc/elements/1.1/" xmlns:inkscape="http://www.inkscape.org/namespaces/inkscape" xmlns:rdf="http://www.w3.org/1999/02/22-rdf-syntax-ns#" xmlns:sodipodi="http://sodipodi.sourceforge.net/DTD/sodipodi-0.dtd" xmlns:svg="http://www.w3.org/2000/svg"
	 xmlns="http://www.w3.org/2000/svg" xmlns:xlink="http://www.w3.org/1999/xlink" x="0px" y="0px" viewBox="0 0 2388 1668"
	 style="enable-background:new 0 0 2388 1668;" xml:space="preserve">
<style type="text/css">
	.st0{fill:#509F4E;}
</style>
<g id="g853" inkscape:groupmode="layer" inkscape:label="Image">
	<path id="path3153" class="st0" d="M1274.5,1101l-73-0.5l-5.6-2.8c-7.2-3.5-12.9-9.8-16-17.3l-2.4-5.9V1019v-55.5l2.8-5.8
		c2-4,4.1-6.6,6.9-8.5l4.1-2.7l94.7-0.3l94.7-0.3l4.6,5.1c2.5,2.8,4.6,5.9,4.6,6.8c0,4.5,1.6,4.4-61.6,4.2
		c-64.8-0.1-99.3,1-108.8,3.4c-3.3,0.9-8.2,2.8-10.9,4.3c-4.5,2.4-5.2,3.4-7.5,9.2c-2,5.2-2.5,8.4-2.6,15.7c0,5.2,0.4,9.7,1,10.3
		c1.1,1.1,99.9,2.9,171.8,3.1l37.8,0.1l3.4,3c3.9,3.4,5.9,9.3,4.9,14l-0.7,3l-101.6-0.4l-101.6-0.4l-3.3,2.5
		c-5.8,4.3-7.2,8.6-7.9,22.9c-1,22.5-0.3,23.1,27.6,23.8c10.2,0.2,59.6,0.1,109.6-0.4l91-0.8l5.6-2.6c4.5-2.1,5.7-3.2,6.2-5.5
		c1.3-6.1,1.9-56,0.8-67.9c-1.2-13.5-2.3-17.1-11.6-41c-11-28.1-25.7-66.3-37-96.5c-5.9-15.7-14.3-37.4-18.6-48.2
		s-7.9-20.4-7.9-21.2s-4.3-13.7-9.6-28.8c-5.3-15-11.3-32.3-13.4-38.3c-7.1-20.7-20.1-57-27.2-76c-3.9-10.5-8.5-23-10.3-28
		c-8-22.7-12.8-30.9-23.7-41.1c-3-2.8-7.7-6.3-10.5-7.7c-11.4-5.8-9.2-5.7-113.9-6.7c-66.2-0.7-98.3-0.7-102.2,0
		c-7.1,1.3-18.3,6.7-24.1,11.7c-6.1,5.2-15.4,18.1-20.7,28.6c-7.5,14.9-10.4,22.7-38.5,102.3c-24.1,68.3-36,101.2-39.3,109
		c-1.8,4.4-3.7,9.1-4.1,10.5c-1.3,4.3-35.6,97.3-45.8,124c-13.2,34.6-14.4,42.3-13.3,85c0.4,14.6,0.9,27.8,1.3,29.4
		c0.5,2.3,1.8,3.4,6.2,5.5l5.6,2.6l91,0.8c50,0.4,99.4,0.6,109.6,0.4c27.9-0.7,28.6-1.3,27.6-23.8c-0.6-14.3-2.1-18.6-7.9-22.9
		l-3.3-2.5l-101.6,0.4l-101.6,0.4l-0.7-3c-1-4.7,1-10.6,4.9-14l3.4-3l37.8-0.1c71.9-0.2,170.7-2,171.8-3.1c0.6-0.6,1-5,1-10.3
		c-0.1-7.3-0.6-10.5-2.6-15.7c-2.3-5.8-3-6.8-7.5-9.2c-2.7-1.5-7.7-3.4-10.9-4.3c-9.5-2.5-44.1-3.6-108.8-3.4
		c-63.2,0.1-61.6,0.2-61.6-4.2c0-0.9,2.1-3.9,4.6-6.8l4.6-5.1l94.7,0.3l94.7,0.3l4.1,2.7c2.8,1.9,5,4.5,6.9,8.5l2.8,5.8v55.5v55.5
		l-2.4,5.9c-3,7.5-8.8,13.8-16,17.3l-5.6,2.8l-80,0.5c-91.8,0.6-151.6-0.1-158.9-1.8c-11.7-2.8-21.4-10.1-23.9-18
		c-2.7-8.4-3.6-14.5-4.6-29.2c-1.5-21.1-1.2-32.3,1-52.3c3.9-35.5,9-50.6,76-226.2c42.7-112,52.7-138.6,58.6-155.4
		c7.8-22.3,13.4-31.4,27.7-44.7c8.5-8,23.8-16.9,36.2-21.1l8-2.7l104.9-0.2l104.9-0.2l6.4,2.4c14.4,5.4,22.3,10.4,32.4,20.5
		c15.8,15.8,23.7,29.8,34.9,61.4c2.1,6,5.7,15,7.8,20c2.2,5,6,14.9,8.5,22c2.5,7.2,9.2,25.6,15,41s14,37.7,18.2,49.5
		s10.2,27.8,13.2,35.5s9.7,25.5,14.8,39.5c5.1,14,13.9,37.7,19.5,52.5c14.3,38,26,70.2,26,71.8c0,0.7,1.4,5.4,3,10.3
		c2.2,6.5,3.6,13.5,5,25.9c2.2,19,2.4,29.1,0.9,51c-1.9,28.2-5,36.2-17,43.2c-3.2,1.9-5.6,2.7-16,5.3
		C1431.4,1101.3,1364,1101.7,1274.5,1101L1274.5,1101z M1151,888.9c-16.9-1.5-34.2-7.6-54.5-19.3c-9.8-5.6-15.5-9.9-11-8.1
		c4.7,1.8,28.8,8.8,38.5,11.1c28.7,6.9,69,2.8,92.2-9.3c7.1-3.7,21.7-15.3,32.2-25.6c12.3-12.1,21-28.4,26.3-49
		c3.6-14,3.6-14.5,3-28.5c-0.5-12.3-1-15.5-3.7-23.5c-6-17.9-20.1-40.9-32.1-52.3c-20.1-19-40.1-29.7-65.5-35
		c-32.3-6.7-50.9-4.3-79.5,10.3c-9.1,4.6-12.4,7-21.2,15.4c-10.8,10.4-20.4,22.6-25.6,32.9c-4.7,9.3-7.1,20.5-7.7,36.5
		c-0.6,16.8,0.9,25.6,6.2,36c10.3,20.2,26.9,32.7,54.5,41.1c12.4,3.8,12.6,3.8,29.5,3.8c18.8,0,24.9-1.1,36.4-6.5
		c7.3-3.4,15.6-9.8,19.3-14.9c5.9-8.1,12.4-32.7,11.5-43.4c-0.7-8.2-7.2-21.8-13.3-28c-10.2-10.2-20-13.6-41-14.3l-15-0.5l-4.6,3
		c-8.6,5.5-17.3,23.1-15.3,30.9c1.9,7.5,10.9,18,17.9,20.9c4.3,1.8,10.6,1.8,14.8,0.1c4.1-1.7,11.4-10,12.5-14
		c0.4-1.7,1.5-3.2,2.4-3.4c3.3-0.6,3.6,14.4,0.5,22c-3.2,7.6-15.3,11.8-29.7,10.3c-16.1-1.6-31.2-10.4-35.3-20.5
		c-4-9.7-2.5-24.8,3.7-36.5c3.7-7,12.8-17.1,19.4-21.5c8.7-5.8,16.7-7.5,34.2-7.5c17.4,0,22.3,1.2,34.1,8.1
		c13.6,8,32.6,30.1,38,44.5c2,5.4,3.9,19.7,3.2,24.4c-3.3,21.4-7.9,29.3-25.4,43.2c-11.2,8.9-20,13.4-33,16.7
		c-20.1,5.1-38.8,5.6-63,1.6c-19.5-3.2-30.5-8.2-48.2-21.7c-13.3-10.2-25.5-24.9-30.5-36.8c-5.5-13.1-8.1-31.8-6.3-45.7
		c3.3-26.2,14.4-46.5,37.2-67.6c15-13.9,29.5-22.9,50.1-30.8c13.7-5.3,21-6.5,44.3-7.1c24.1-0.6,33.2,0.5,50.1,6.2
		c23.4,7.8,39.6,17.9,55.8,34.5c26.5,27.3,39.6,62.4,39.6,106.1c0,31.7-14,61.3-39.6,83.2c-8.2,7-12.2,9.1-31.8,16.6
		C1192.8,889.5,1180.3,891.5,1151,888.9L1151,888.9z"/>
</g>
</svg>
