<?xml version="1.0" encoding="utf-8"?>
<!-- Generator: Adobe Illustrator 25.1.0, SVG Export Plug-In . SVG Version: 6.00 Build 0)  -->
<svg version="1.1"
	 id="svg1991" xmlns:cc="http://creativecommons.org/ns#" xmlns:dc="http://purl.org/dc/elements/1.1/" xmlns:inkscape="http://www.inkscape.org/namespaces/inkscape" xmlns:rdf="http://www.w3.org/1999/02/22-rdf-syntax-ns#" xmlns:sodipodi="http://sodipodi.sourceforge.net/DTD/sodipodi-0.dtd" xmlns:svg="http://www.w3.org/2000/svg"
	 xmlns="http://www.w3.org/2000/svg" xmlns:xlink="http://www.w3.org/1999/xlink" x="0px" y="0px" viewBox="0 0 2388 1668"
	 style="enable-background:new 0 0 2388 1668;" xml:space="preserve">
<style type="text/css">
	.st0{fill:#C80C0C;}
</style>
<g id="g1999" inkscape:groupmode="layer" inkscape:label="Image">
	<path id="path3141" class="st0" d="M1086.7,1126.5c-45.1-2.9-81-13.2-111.3-32c-14.2-8.8-23.6-16.4-36.7-30
		c-15.2-15.7-20.4-24-27.5-44.5c-6.2-18-8-28.4-8-48.2c0-34.5,4.2-50.1,20.2-75.9c11-17.6,18.4-33.5,22.2-47.7
		c6.1-22.5,6.8-34.8,3.4-61.6c-2.9-22.8-3.3-29.3-1.8-28.8c0.6,0.2,2,2.6,3,5.4c1,2.7,3.7,9.2,6,14.5c2.3,5.2,5.4,14,6.8,19.5
		c2.4,9.2,2.6,11.6,2.6,30.5c0,18-0.3,21.4-2.2,28.2c-2.1,7.4-10.5,25.4-15.9,34c-3.8,6-15.9,30.6-17.7,35.8
		c-4.8,14.3-6.7,51.4-3.4,66.3c4,17.7,10.8,33.5,21.8,50c9.4,14.2,14.1,19.1,31.1,31.8c28.4,21.3,51.5,30,95.3,35.6
		c24.9,3.2,83.4,2.1,90.5-1.7c0.9-0.5,7.3-1.8,14.2-2.9c20.4-3.3,42.9-12.4,57.4-23.2c9.9-7.4,24.2-22.1,29.9-30.7
		c5.7-8.7,10.9-20.5,12.6-28.7c0.7-3.3,1.6-8,2.2-10.4c3.7-16.4,1.3-35-7.2-57c-8.8-22.8-11.3-37.9-8.6-52.5
		c3.5-19.4,10.8-33.4,25.5-48.7c9.5-9.9,11.9-8.9,5.7,2.5c-4.7,8.7-8.9,19.6-11.6,30.3c-2,7.9-2.2,10.7-1.7,22
		c0.6,14.5,2.1,20.7,8.5,35.7c5.6,13.1,10.3,27.9,11.3,35.7c3.6,28.3-3.2,55-20.2,78.1c-6.8,9.3-24.9,26.5-35,33.2
		c-4.7,3.1-14.6,8.6-22,12.2c-22,10.6-35.2,14.3-74.5,21.1C1134.8,1127,1109.5,1127.9,1086.7,1126.5L1086.7,1126.5z M1084.7,1076.6
		c-8.9-1.1-22.7-4.4-31.9-7.7c-40.6-14.6-72.8-52-82.2-95.5c-2.4-11.1-0.7-28,4.3-43.3s15.9-36.3,26.4-50.5c5.9-8,7-13,7-32.5
		c0-12.2-0.4-15.7-2.9-26.1c-1.6-6.6-3.9-14.6-5-17.9c-3-8.6-10.8-22.9-18.4-33.8c-8.7-12.5-29-35-41.5-46.1
		c-10.8-9.6-20.2-17-20.9-16.3c-0.2,0.2,0.5,5.1,1.6,10.8c2.8,14.2,5,31.1,5.7,44.9c0.9,17.4-2,28.8-13.3,51.2
		c-7.3,14.6-10.5,19.6-22.9,35.3c-9.8,12.4-14.9,19.4-23.4,31.5c-5.2,7.4-18.4,33.9-21,42c-4,12.7-5.6,23.8-5.6,39.5
		c0,20.9,1.6,26.2,13.7,46.5c7.4,12.4,29.8,33.9,42.2,40.4c14.5,7.7,27,15.4,27,16.7c0,1.8-12.6,1.9-23,0.2
		c-8.3-1.4-25.7-9.8-35.7-17.3c-10.9-8.2-21.9-20.5-28.1-31.5c-13.3-23.6-16.8-35.1-17-57.2c-0.5-40.2,6.2-58.2,38.3-103.2
		c27.4-38.5,31.2-44.5,36.8-59c10.6-27.1,9.9-60.9-2-96.3c-5-14.9-9-23.8-12.3-27.7c-1.5-1.8-2.2-3.6-1.9-4.6
		c1-2.5,12.1-1.2,22.4,2.6c22.6,8.3,43.4,24.3,71.5,54.9c15.1,16.5,35.3,44.1,35.3,48.2c0,0.7,2,5.1,4.4,9.9
		c7.5,14.9,14.9,40.5,16.3,56.6c0.3,4.1,1,7.5,1.6,7.5c2.5,0,21.3-23.2,25.5-31.4c4.1-8.2,5.6-17.5,4.3-27.9
		c-1.2-10-5.5-24.4-10.7-35.6c-14.2-31-18.6-43.7-20.5-59.9c-2.5-21-0.8-36.9,6.4-58.5c7-21,20.2-42.9,43.7-72.1
		c7.3-9.1,10-11.7,11.3-10.9c0.5,0.3,0.9,5.1,0.9,10.7c0,20.4,10.2,51.5,27.7,84.2c7.8,14.5,9.5,16.9,20.9,29.2
		c9.9,10.6,23.1,21.3,43.9,35.3c26.6,18,45,42.1,53.1,69.4c3.8,13,4.5,35.5,1.5,50.1c-3.8,18.4-12.8,40.9-18.6,46.3
		c-3.1,3-9.1,3.7-14,1.6c-3.6-1.5-3.8-1.8-3.3-4.9c0.3-1.8,2.8-7.3,5.5-12.2c6.3-11.4,8.9-18.6,10.7-30.4c1.9-12.1,1.9-23,0-34.8
		c-1.8-11.2-8.9-26.2-18.2-38.7c-9.5-12.7-18.3-20.3-48.3-41.5c-19.5-13.8-32.9-26.1-42.6-39c-12.4-16.5-29-53.5-32.3-72.5
		c-1.6-9.2-1.8-9.7-3.1-9.3c-0.6,0.2-4.4,6.9-8.5,14.8c-5.3,10.4-8.4,18-10.9,27c-4.6,16.2-5.5,22.1-5.5,35.6
		c0,19.8,1.2,24.3,18.7,66.9c13,31.7,13.5,33.3,14.1,44c0.4,8.3,0.1,11.4-1.7,18c-5.1,18.7-16.4,35.4-41.6,61.5
		c-11.9,12.3-24.3,27-31.6,37.3c-4.2,6-10.2,19.2-13,28.7c-5.7,19.6-1.7,50.5,9.2,72.1c11.3,22.2,34.7,44.1,54.9,51.3
		c22.3,8,53.6,11.5,75.7,8.5c17.8-2.4,43.3-13.6,59.1-25.9c1.8-1.4,6.5-6.8,10.5-12c6.4-8.5,7.4-10.3,9.4-18.5
		c2.7-10.6,2.8-17.3,0.8-32.8c-1.8-14-6.2-28.9-10.5-36c-12.2-19.9-27.8-34.1-48.6-44.6c-11.7-5.9-22-8.2-36.6-8.2
		c-14.4,0-24.7,2.3-35.8,8.1c-16.4,8.5-25.5,19.1-32.1,37.1c-3.9,10.5-4.9,16.8-5,29.4c-0.1,14.9,2.3,22.5,11.4,35.9
		s13.9,17,28.7,21.1c13.1,3.7,23.1,4.2,35.1,1.7c19.8-4.1,31.2-12.4,36.3-26.5c2.5-6.9,2.8-8.7,2.3-15.5c-0.8-10.5-3-16.3-8.8-22.6
		c-10.8-11.9-37-19.2-48.1-13.6c-5.7,2.9-9.1,10.3-9.1,20c0,11.6,3.3,15.1,15.7,17.3c5.3,0.9,7,0.8,10.5-0.6
		c6.5-2.6,7.7-0.9,3.2,4.4c-4.4,5.3-9.3,6.9-20.8,6.9c-12.1,0-16-1.5-22.7-8.7c-5.4-5.8-6.3-8.9-5.6-20.1c0.7-12,6-19.8,18.9-28.2
		c7.3-4.7,14.2-6.3,26.9-6.3c18.7,0,35,6.2,46.6,17.8c10.2,10.2,14.1,20.7,13.1,35.5c-0.9,12.4-6,22.6-16.4,33
		c-16.4,16.3-35.6,22.8-63.9,21.7c-15.2-0.6-18.9-1.5-30.9-7.5c-16.7-8.4-31.3-23.2-37.4-37.9c-5.3-12.6-6.4-18.6-6.4-33.3
		c0-14.2,0.9-18.3,7.4-33.5c3.7-8.7,13.6-19.3,25.7-27.6c12.1-8.4,38.5-17.5,57.6-20c10.8-1.4,10.2-1.1,13.7-6
		c6.5-9,10.6-30.2,9.7-49.9c-0.4-9.5-1.1-13.4-4.1-22.5c-4.4-13.7-9.6-21.7-24.7-38.5c-6.2-6.9-12.9-14.8-15-17.5
		c-5-6.8-14.1-23.2-18.1-33c-3.2-7.8-3.3-8.4-3.2-21.5c0.1-12,0.4-14.6,3-23c3.6-11.7,5.8-13.1,6.6-4.3c1.2,12.5,7.9,38.4,12.6,48.5
		c5.3,11.4,10.5,17.8,28.6,35.6c21,20.6,27.7,28.7,33.4,40.1l4.7,9.4l0.4,15.1c0.3,11.1-0.1,17.5-1.3,24.1
		c-2.2,11.6-7.7,28.3-12.1,36.3c-1.9,3.5-3.3,6.8-3.2,7.4c0.2,0.6,3.7,1.9,7.8,2.9c16.4,4.2,41.9,18.8,54.3,31.2
		c5.8,5.8,8.1,7.5,8.7,6.5c0.5-0.7,0.9-1.8,0.9-2.5c0-0.6,1.3-5.6,2.9-11c11.8-40.8,33.9-73.7,62-92.5c16.5-11,27.1-15.8,47.4-21.3
		c9.7-2.6,32.9-5.1,37.4-3.9c3.4,0.8,3,2.7-1.9,8.6c-5.1,6.3-13.7,23.3-17.1,33.9c-7.8,24-7.2,46.3,1.9,73
		c4.1,11.8,7.9,19.7,17.3,35.4c7.2,12.1,13.1,25,15.6,34.1c0.9,3.2,1.9,11.6,2.2,18.5c0.6,11.3,0.4,13.3-1.6,19.4
		c-7.2,22.3-25.2,43.5-47.6,56c-7.5,4.2-28.8,11.6-33.4,11.7c-4.1,0-6.5-2.5-5-5.2c0.5-1,6.7-4.8,13.7-8.4
		c24.7-12.9,39.7-27.2,46.6-44.7c4.6-11.5,5.1-15.4,3.9-29.6c-1.3-15.2-4.3-24.2-12.2-36.5c-6.6-10.2-18.3-32.6-21.3-40.8
		c-3.6-9.6-5.5-18.2-7.3-32.1c-2.8-22.1,0.6-40.1,11.8-64.2c2.3-4.8,3.8-9.1,3.4-9.5s-6.2,2.1-12.9,5.6
		c-41.2,21.6-66.9,46.9-79,77.6c-8.8,22.5-11,40.5-8.2,69.1c1,10.6,1.6,22.8,1.3,29.5c-0.4,10-0.8,12.5-3.9,20.4
		c-4.6,12.1-11.5,22.2-21.9,32.5c-20.7,20.3-42.4,31.6-73.7,38c-11.9,2.5-17.9,3.2-30.3,3.4
		C1098.7,1077.2,1088.6,1077,1084.7,1076.6L1084.7,1076.6z"/>
</g>
</svg>
