<?xml version="1.0" encoding="utf-8"?>
<!-- Generator: Adobe Illustrator 25.1.0, SVG Export Plug-In . SVG Version: 6.00 Build 0)  -->
<svg version="1.1"
	 id="svg2564" xmlns:cc="http://creativecommons.org/ns#" xmlns:dc="http://purl.org/dc/elements/1.1/" xmlns:inkscape="http://www.inkscape.org/namespaces/inkscape" xmlns:rdf="http://www.w3.org/1999/02/22-rdf-syntax-ns#" xmlns:sodipodi="http://sodipodi.sourceforge.net/DTD/sodipodi-0.dtd" xmlns:svg="http://www.w3.org/2000/svg"
	 xmlns="http://www.w3.org/2000/svg" xmlns:xlink="http://www.w3.org/1999/xlink" x="0px" y="0px" viewBox="0 0 2388 1668"
	 style="enable-background:new 0 0 2388 1668;" xml:space="preserve">
<style type="text/css">
	.st0{fill:#76AECB;}
</style>
<g id="g2572" inkscape:groupmode="layer" inkscape:label="Image">
	<path id="path3139" class="st0" d="M1067.1,1108.6c-74.6-5.6-143.9-32.1-200.5-76.7c-14.9-11.7-43.3-40.8-54.5-55.8
		c-38.8-51.9-59-110.4-59-171.3c0-55.3,17-109.6,49.1-157.5c24.2-36,59.6-69.7,97.9-93.2c44.2-27.2,90.4-43.3,146.6-51.4
		c15.1-2.2,61.4-3,79.6-1.5c75,6.4,145,34.5,200.7,80.8c9.5,7.9,30.2,28.4,38.5,38.2c37.5,44.1,60.2,95.7,67.6,153.5
		c2.1,16.4,1.6,51.2-1,68.5c-12.9,85.1-60.7,157.9-136.3,207.8c-49.5,32.6-109.8,53-172.2,58.2
		C1112.5,1109.2,1077.6,1109.4,1067.1,1108.6z M1117.9,1093.2c16.7-1.3,32.3-4,32.9-5.7c0.3-0.8-0.5-1.2-2-1.2
		c-5.6,0-26.2-4.2-39.2-8c-21.4-6.3-40.2-14.6-60.5-26.8c-21.7-13.1-66.9-48.2-90.5-70.3c-10.1-9.5-34.2-27.4-47.7-35.6
		c-11.9-7.2-39.3-20.1-48.8-23c-10.6-3.2-32.9-8.1-42-9.1c-8.8-1-21-0.4-21,1c0,2.8,11.4,23.5,20.3,36.9
		c38,57.2,97.5,102.1,165.2,124.5C1027.7,1090,1077.2,1096.5,1117.9,1093.2z M1209.2,1071.3c9.2-1.3,14-3.1,31.8-11.6
		c19.5-9.4,42.1-22.9,57.2-34.1c13-9.7,24.8-19.9,24.8-21.3c0-0.5-1.7-0.2-3.8,0.7c-28.5,12.6-47.2,16.4-81.1,16.4
		c-21.6,0-33.7-1.4-49.2-5.6c-5.2-1.4-14-3.8-19.5-5.3s-12.8-3.9-16.2-5.4s-9.1-3.8-12.5-5.3c-16.1-6.7-47.1-24.6-63.7-36.6
		c-15.8-11.6-30.3-22.7-36.1-27.7c-3.6-3.1-10.6-8.8-15.5-12.5c-5-3.8-12.6-10.1-17-14s-9.3-8-11-9s-6.6-4.6-11-8
		c-46.7-35.7-73-51.2-104.1-61.4c-21.5-7.1-35.6-9.7-62.7-11.5c-18.3-1.3-24.6-1.3-31.5-0.4c-12.7,1.7-13.2,1.9-13.2,7.5
		c0,14.9,9.6,57.7,15.7,69.7c1.2,2.4,2,2.8,6.2,2.8c14.5,0,47.1,4.6,68.1,9.6c37.7,9,82.2,35.2,129,75.9
		c43.4,37.8,49.7,42.9,70,56.5c11.7,7.8,36.2,20.5,43.9,22.6c3.1,0.9,8.7,2.4,12.2,3.5c5.4,1.6,17.3,3.3,37,5.3
		C1164.9,1072.4,1203,1072.2,1209.2,1071.3L1209.2,1071.3z M1278.7,1000.9c32.5-6.9,62.3-21.9,81.8-41.1c7.8-7.7,18.7-25,27.4-43.6
		c7.9-16.8,7.7-17.8-2.1-11.6c-11.1,7.1-22.3,12-48.7,21.3c-33.1,11.6-70.7,15.3-107.3,10.4c-12.2-1.6-35-6.8-45.4-10.2
		c-10.8-3.6-32.3-13.8-43.9-20.7c-10.4-6.3-37.5-26.4-47.6-35.3c-21.3-18.8-66.1-54.5-87.5-69.7c-39.1-27.8-63.9-39.4-108-50.4
		c-18.2-4.6-28.2-5.9-43.5-5.8c-12.2,0.1-17.4,0.7-44.9,5.2c-14.5,2.4-31.9,7.1-33.1,9.1c-2.7,4.3-3.8,42.5-1.3,45
		c0.8,0.8,12.5,1.2,37,1.3c35,0.2,36.2,0.3,48.9,3c24.1,5.1,49.5,14.8,74,28.4c22.7,12.5,60.7,39.2,87.9,61.7
		c3.9,3.2,14.3,11.3,23.1,17.9s18,13.7,20.5,15.7c16.4,13.3,57.8,39.8,79.3,50.7c8.5,4.3,35.4,13.9,46.9,16.8
		c18.2,4.5,28.1,5.5,52.3,5.1C1263.4,1003.5,1268.3,1003.1,1278.7,1000.9L1278.7,1000.9z M1283.6,921.3c26.8-2.2,45.2-7.4,71.6-20.2
		c20.4-9.8,43.6-22.3,46.1-24.7c2.1-2,6-18.6,8.4-36.1c2.4-17.1,2.4-57,0-72.4c-1.9-12.6-5.7-28-8.7-35.6
		c-4.3-11-19.9-28.5-33.6-37.8c-19.3-13.1-45.1-23.3-66.4-26.2c-10.7-1.4-34.4,0.2-43.5,3c-15.3,4.7-31.4,14.3-43.1,25.7
		c-6.6,6.4-17.3,19.9-21,26.6c-5.9,10.6-11,30.2-11.9,45.7c-0.6,10.1-0.3,13.2,1.9,24.5c4.9,24.5,9.9,35.7,22.3,49.6
		c15.9,17.8,32.3,27.7,54.2,32.4c9.6,2.1,18.4,1.7,31.6-1.1c15.9-3.4,25.3-8.3,35.4-18.4c8-8,12.3-14.5,17.3-26.2
		c3-7,3.1-7.9,3.1-20.8c0-15.9-1.4-21.5-7.7-32.2c-6.2-10.4-13.2-17.2-22-21.3c-9-4.2-16.7-5.5-31.7-5.5c-18.1,0-25.9,2.2-36.3,10.3
		c-8.3,6.5-12.6,19-10.7,31.2c0.6,3.6,1.5,7.6,2,9.1c1.9,5,7.1,11.5,10.8,13.3c10.6,5.4,26.8,2.6,36-6.2c3.9-3.7,6-3.1,8,2.4
		c3.1,8.6-2.5,20.1-12.1,25.1c-12.4,6.4-34.4,2.5-46-8.2c-10.5-9.7-15-20.4-14.9-36c0.1-13.1,2.4-18.9,11.1-28.2
		c10.4-11,20.5-17.6,34.6-22.5c9.8-3.4,33-4.4,43.7-1.8c20.1,4.8,41.7,20.5,50.6,36.8c5.6,10.1,7.2,16.4,7.2,27.8
		c0,18.1-5.1,31.8-17.9,47.8c-15.4,19.3-37.8,32.3-64.1,37.3c-3.6,0.7-13.9,1.2-23,1.3c-14,0-17.8-0.3-24.9-2.2
		c-9.7-2.6-24.3-8.9-32.1-14c-13.7-8.7-28.8-27.8-36.4-45.8c-4.2-10-9.6-29.7-9.6-35c0-2.2-0.6-3.7-1.6-4.1c-0.9-0.3-5,1-9.2,2.9
		c-10,4.6-19.3,7.3-33.9,9.8c-13.7,2.4-17.9,2.1-33.9-2.1c-21.3-5.5-33.2-11.9-46.1-24.6c-6.6-6.5-8.9-9.7-13-17.9
		c-8.5-16.9-12.3-32.1-12.3-49.6c0-5.4-0.4-10.1-0.8-10.3c-0.5-0.3-3.9,1.8-7.8,4.6c-20,14.7-47.3,22.6-69.5,20
		c-22.3-2.6-46.3-15.2-56.6-29.8c-9.8-13.9-14.3-26.3-14.3-39.9c0.1-25.3,9.4-48.6,27.6-69.3c2.5-2.9,4.4-5.7,4.2-6.3
		c-0.5-1.4-19,12.4-29.9,22.2c-14.4,13-39.8,42.6-51.2,59.7c-4.3,6.4-11.5,19.1-16,28.2c-8.7,17.5-18,42.8-17.5,47.7
		c0.3,2.6,0.6,2.8,3.8,2.5c1.9-0.2,11.4-2.3,21-4.7c22.3-5.5,36-6.9,60-6.2c16.4,0.5,20.3,1,34,4.1c24.4,5.6,46.5,12.9,68.5,22.8
		c10.7,4.8,39.7,21,50.4,28.3c13.3,9,54.3,42,69.5,55.9c44.6,41,76,62.4,104.7,71.3c3.5,1.1,8.5,2.9,11.1,4c5.4,2.3,23,6.4,36.8,8.5
		C1251.5,922.4,1267.3,922.6,1283.6,921.3L1283.6,921.3z M1133.4,781.8c10.6-2.3,21.6-7.2,25.9-11.4c1.1-1,2.6-5.5,3.7-11.3
		c2.6-12.8,9.1-31.4,14.5-41.5c4.8-9.1,4.8-9.8,0.2-18.8c-8.6-16.6-28-31.5-46.7-35.9c-10.2-2.4-22.8-2-29.9,0.8
		c-13.9,5.7-22.6,14.1-29.5,28.6c-2.4,5.1-3.1,8.2-3.5,14.8c-0.4,7.9-0.3,8.7,2.9,14.9c4.1,8.1,14.2,17.8,20.2,19.4
		c5.2,1.4,9.9,0.5,13.7-2.7c4.6-3.9,6-7.4,6-15.2c0-5.7-0.4-7.5-2.5-10.6c-4.8-7.1-2.6-8.3,7.7-4.1c7.9,3.2,12.3,6.6,16,12.4
		c5.6,8.7,2.8,15.7-10.6,26.7c-13.8,11.3-23.7,14.8-35,12.5c-5-1-6.6-2-12-7.4c-8-7.8-15.5-19.3-18.5-28.2
		c-3.2-9.6-3.9-25.5-1.6-34.4c4.9-18.7,17.2-31.3,38.6-39.6c16.9-6.5,31.2-8,47.6-5c9.3,1.7,25,9.2,34.7,16.6
		c8.3,6.3,20.7,22,21.8,27.5c0.2,1,0.8,2,1.4,2.2s4.8-3.1,9.5-7.3c13.6-12.1,25.1-18,49.4-25.2l12.1-3.6l21-0.1
		c18.4-0.1,22.1,0.2,29.6,2.1c17.1,4.3,31.7,9.7,46.3,17c8.2,4.1,15.1,7.2,15.5,6.8c1-1-4.9-11-12.9-21.9
		c-30.5-41.1-81.7-76.1-137.8-94.1c-20.8-6.7-25.9-7.5-44.4-7.6c-47.1,0-89.6,14.6-117.3,40.3c-7.8,7.3-22,26.8-28.9,39.8
		c-8.9,16.9-13.3,41.2-12.3,69.2c0.4,13.1,0.9,16.2,3.1,22.7c4.3,12.1,12.1,27.1,17.1,32.8c8.1,9.1,30.4,18.4,51,21.1
		C1109,785.5,1120.3,784.6,1133.4,781.8L1133.4,781.8z M974.3,705.9c9.8-3.4,21.4-12.2,28.3-21.1c9-11.8,13-24.1,12.3-38.2
		c-0.7-12.9-3.1-17.5-15.5-29.5c-14.3-13.7-25.2-18.7-39-17.7c-12.4,0.9-27.8,12-33.8,24.3c-2.6,5.4-2.9,7-2.9,16.5
		c0,12.2,1.4,18.3,5.7,23.4c3.4,4.1,9.5,7.6,13.3,7.6c6.1,0,13.9-6.2,17.4-14c2.8-6.1,2.6-8.3-1-12.4c-5.5-6.3,1.2-6.2,8.2,0.2
		c7.5,6.8,9,15.4,4,23.3c-5.4,8.5-12.5,12.8-24.4,15c-12.7,2.3-25.2-1.7-33.8-10.8s-9.1-10.2-9.7-22.8c-0.6-12.9,0.1-15.7,6.1-26.1
		c4.6-7.9,17.2-21.5,23.3-25.1c2.3-1.3,7.9-3.9,12.5-5.6c8-3,9-3.2,22.4-3.2c12.3,0,15.1,0.3,22.8,2.7c12.4,3.8,17.7,6.7,25.8,14.4
		c6.3,5.9,14.9,17.2,14.9,19.4c0,0.4,0.6,0.8,1.4,0.8s2.9-2.6,4.7-5.8c4.9-8.6,8.9-13.6,20.8-25.9c15.4-15.9,32.3-27.1,54.5-36.3
		c5.5-2.3,12.5-5.2,15.5-6.5c8.3-3.5,50.4-10.2,56.2-9c1.5,0.3,3.5,0.1,4.5-0.4c1.6-0.9,1.5-1.1-0.9-2c-4.7-1.8-37.8-8-53.8-10
		c-27.2-3.5-39.9-4.4-66.5-4.4c-73.1,0-125,15.5-153.3,45.8c-11.1,11.9-20.5,27.6-25.6,42.9c-3.2,9.5-5,33.9-3.5,45.2
		c2.4,16.8,15.1,32.2,33.3,40.5c11.1,5,20.2,6.6,38.6,6.8C965.7,708.2,968.7,707.9,974.3,705.9L974.3,705.9z"/>
</g>
</svg>
